<svg width="26" height="26" viewBox="0 0 26 26" fill="none" xmlns="http://www.w3.org/2000/svg">
<g clip-path="url(#clip0_309_98)">
<path d="M13 0C5.82055 0 0 5.82055 0 13C0 20.1795 5.82055 26 13 26C20.1795 26 26 20.1795 26 13C26 5.82055 20.1795 0 13 0Z" fill="black"/>
<path d="M14.4221 11.8235L19.9873 5.35449H18.6685L13.8363 10.9715L9.97684 5.35449H5.52539L11.3617 13.8483L5.52539 20.6321H6.84423L11.9472 14.7004L16.0231 20.6321H20.4745L14.4218 11.8235H14.4221ZM7.31941 6.3473H9.34506L18.6691 19.6845H16.6435L7.31941 6.3473Z" fill="white"/>
</g>
<defs>
<clipPath id="clip0_309_98">
<rect width="26" height="26" fill="white"/>
</clipPath>
</defs>
</svg>
