<svg width="40" height="40" viewBox="0 0 40 40" fill="none" xmlns="http://www.w3.org/2000/svg">
<g clip-path="url(#clip0_1_837)">
<path d="M3.05798 13.3193H1.17517C0.527983 13.3193 0.0032959 13.844 0.0032959 14.4912C0.0032959 15.1384 0.527983 15.6631 1.17517 15.6631H3.05798C4.61025 15.6059 4.6108 13.3768 3.05798 13.3193Z" fill="white"/>
<path d="M38.8322 13.3193H36.9493C36.3022 13.3193 35.7775 13.844 35.7775 14.4912C35.7775 15.1384 36.3022 15.6631 36.9493 15.6631H38.8322C40.3845 15.6059 40.385 13.3768 38.8322 13.3193Z" fill="white"/>
<path d="M7.19272 3.33748C8.33085 4.39475 9.90749 2.81865 8.84999 1.68021L7.51882 0.349043C7.06124 -0.108535 6.31921 -0.108535 5.86155 0.349043C5.4039 0.806621 5.4039 1.54865 5.86155 2.00631L7.19272 3.33748Z" fill="white"/>
<path d="M32.8148 25.6451C31.6767 24.588 30.1 26.1638 31.1575 27.3024L32.4887 28.6335C32.9465 29.0913 33.6884 29.091 34.1459 28.6335C34.6036 28.1759 34.6036 27.4339 34.1459 26.9763L32.8148 25.6451Z" fill="white"/>
<path d="M7.19272 25.6451L5.86155 26.9763C5.4039 27.4339 5.4039 28.1759 5.86155 28.6336C6.31937 29.0914 7.06124 29.0911 7.51882 28.6336L8.84999 27.3024C9.90726 26.1644 8.33124 24.5877 7.19272 25.6451Z" fill="white"/>
<path d="M32.4886 0.348975L31.1575 1.68015C30.6998 2.13773 30.6998 2.87976 31.1575 3.33741C31.6153 3.79523 32.3571 3.79491 32.8147 3.33741L34.1459 2.00624C35.2032 0.868194 33.6272 -0.708369 32.4886 0.348975Z" fill="white"/>
<path d="M20.0036 1.39481C8.14492 1.32215 2.34794 16.3372 11.2438 24.1794C12.5859 25.42 13.4564 27.087 13.7233 28.8764C12.1205 28.9519 12.2055 31.2563 13.8109 31.2199V32.5586C13.8109 35.5726 15.9757 38.0892 18.8318 38.6387C18.7153 40.4544 21.2926 40.4533 21.1756 38.6387C24.0318 38.0892 26.1966 35.5726 26.1966 32.5586V31.2199C27.803 31.256 27.8859 28.9512 26.2841 28.8764C26.5508 27.0874 27.4214 25.4201 28.7636 24.1794C37.6625 16.334 31.8571 1.32059 20.0036 1.39481ZM23.8527 32.5586C23.6586 37.6588 16.3472 37.6555 16.1547 32.5585V31.2199H23.8527V32.5586ZM27.1996 22.4336C25.3629 24.1186 24.202 26.4206 23.9199 28.8761H16.0876C15.2455 22.0745 10.1409 22.6074 9.31556 15.6633H14.9827C15.2936 15.6633 15.5916 15.5398 15.8113 15.32L18.3646 12.7666C20.7478 13.9988 23.722 12.1655 23.686 9.47034C23.686 7.43991 22.0341 5.78801 20.0036 5.78801C17.3088 5.75223 15.475 8.72603 16.7074 11.1093L14.4973 13.3194H9.31494C10.9998 0.627135 29.0122 0.636275 30.6923 13.3194H25.0246C24.7137 13.3194 24.4157 13.4428 24.196 13.6627L21.6427 16.2161C19.2595 14.984 16.2853 16.8171 16.3214 19.5123C16.3214 21.5427 17.9733 23.1946 20.0037 23.1946C22.6986 23.2304 24.5323 20.2566 23.2999 17.8734L25.5101 15.6633H30.6918C30.4046 18.2691 29.1677 20.6892 27.1996 22.4336ZM18.665 9.47049C18.665 8.73243 19.2656 8.13188 20.0036 8.13188C21.777 8.19922 21.7766 10.742 20.0036 10.8091C19.2656 10.809 18.665 10.2086 18.665 9.47049ZM21.3423 19.5123C21.3423 20.2504 20.7417 20.8509 20.0036 20.8509C18.2303 20.7836 18.2307 18.2408 20.0036 18.1738C20.7417 18.1738 21.3423 18.7743 21.3423 19.5123Z" fill="white"/>
</g>
<defs>
<clipPath id="clip0_1_837">
<rect width="40" height="40" fill="white"/>
</clipPath>
</defs>
</svg>
