<svg width="41" height="39" viewBox="0 0 41 39" fill="none" xmlns="http://www.w3.org/2000/svg">
<path d="M19.9995 24.4083L16.9585 21.3672L18.6572 19.6685L19.9995 21.0109L22.3428 18.6677L24.0415 20.3665L19.9995 24.4083Z" fill="white"/>
<path d="M20.5 29.177C16.0629 29.177 12.4531 25.5672 12.4531 21.1302C12.4531 16.6931 16.0629 13.0833 20.5 13.0833C24.937 13.0833 28.5468 16.6931 28.5468 21.1302C28.5468 25.5672 24.937 29.177 20.5 29.177ZM20.5 15.4857C17.3876 15.4857 14.8555 18.0178 14.8555 21.1302C14.8555 24.2426 17.3876 26.7746 20.5 26.7746C23.6124 26.7746 26.1444 24.2426 26.1444 21.1302C26.1444 18.0178 23.6124 15.4857 20.5 15.4857Z" fill="white"/>
<path d="M31.879 38.9968L20.5 33.828L9.12095 38.9968L7.03255 37.4795L8.43202 25.0601L0 15.8353L0.797677 13.3802L13.0416 10.8735L19.2094 0.00341797H21.7906L27.9584 10.8735L40.2023 13.3802L41 15.8353L32.568 25.0601L33.9675 37.4795L31.879 38.9968ZM20.5 31.1895L31.399 36.1401L30.0585 24.2448L38.1348 15.4091L26.4076 13.0081L20.5001 2.59681L14.5926 13.0081L2.86526 15.4092L10.9416 24.2448L9.60111 36.1402L20.5 31.1895Z" fill="white"/>
</svg>
