<svg width="47" height="46" viewBox="0 0 47 46" fill="none" xmlns="http://www.w3.org/2000/svg">
<g clip-path="url(#clip0_1_648)">
<path d="M34.5174 3.36282C34.2647 3.10803 33.9201 2.96484 33.5611 2.96484C33.202 2.96484 32.8577 3.10838 32.6047 3.36318L28.6235 7.37527C28.3599 7.64059 28.01 7.78693 27.6387 7.78693C27.3559 7.78693 20.5891 7.78693 19.4033 7.78693C19.0316 7.78693 18.6821 7.64059 18.416 7.37316L14.5047 3.45091C14.252 3.19717 13.9084 3.05469 13.5504 3.05469C13.5501 3.05469 13.5494 3.05469 13.549 3.05469C13.1903 3.05504 12.8468 3.19858 12.5941 3.45302L0.947012 15.1861C0.424443 15.7125 0.425496 16.5622 0.949468 17.0875L4.28984 20.4342C4.9226 21.0719 5.2711 21.9202 5.2711 22.8232C5.2711 23.9915 5.59889 25.1089 6.20814 26.0716C4.88225 27.6838 4.96788 30.0851 6.46645 31.5945C7.19187 32.3256 8.14189 32.7481 9.16071 32.7979C9.20739 33.7834 9.60326 34.7548 10.3487 35.5055C11.0741 36.2366 12.0241 36.6591 13.0433 36.709C13.0896 37.6944 13.4859 38.6659 14.2309 39.4165C15.4042 40.5986 17.0877 40.8965 18.5094 40.3859C18.7052 40.9516 19.0267 41.4823 19.4745 41.9332C21.0745 43.5455 23.6691 43.5459 25.2694 41.9332L25.8383 41.3605C26.1938 41.0022 26.4693 40.5933 26.6659 40.1571C28.2575 41.5633 30.7106 41.5321 32.2615 39.9697C33.0069 39.219 33.4028 38.2475 33.4491 37.2621C34.4679 37.2126 35.4183 36.7897 36.1437 36.0586C36.8891 35.3079 37.285 34.3365 37.3317 33.351C38.3502 33.3015 39.3005 32.8787 40.026 32.148C41.5161 30.6469 41.6098 28.2636 40.3071 26.6513C41.2564 25.3139 41.7705 23.7174 41.7705 22.0409C41.7705 21.6482 41.9281 21.2642 42.2029 20.9873L46.1645 16.9949C46.686 16.4695 46.686 15.6216 46.1645 15.0962L34.5174 3.36282ZM8.37949 27.6835L10.3206 25.728C10.8656 25.1787 11.7444 25.1784 12.2898 25.728C12.8408 26.2828 12.8408 27.1855 12.2898 27.74L10.3487 29.6959C9.8033 30.2451 8.92487 30.2451 8.37949 29.6959C7.82885 29.141 7.82885 28.2384 8.37949 27.6835ZM12.2617 31.5945L16.144 27.6835C16.6893 27.1343 17.5681 27.1339 18.1135 27.6835C18.6642 28.2384 18.6642 29.141 18.1135 29.6959C16.7297 31.0898 16.656 31.1639 14.2309 33.6069C13.6855 34.1558 12.8071 34.1561 12.2617 33.6065C11.7111 33.052 11.7111 32.1494 12.2617 31.5945ZM16.144 37.5175C15.5933 36.963 15.5933 36.0604 16.144 35.5055L18.0851 33.55C18.6305 33.0008 19.5093 33.0008 20.0546 33.55C20.5632 34.0624 20.6011 34.8707 20.1701 35.4287C20.0515 35.5382 20.228 35.362 18.1135 37.5175C17.5681 38.0671 16.6897 38.0675 16.144 37.5175ZM23.9256 39.4615L23.3568 40.0342C22.8114 40.5838 21.9329 40.5838 21.3876 40.0342C20.8857 39.5289 20.8425 38.7354 21.2552 38.1787C21.9951 37.4309 21.9589 37.4751 22.0877 37.334C22.638 36.9013 23.4238 36.9441 23.9256 37.4495C24.4763 38.0043 24.4759 38.907 23.9256 39.4615ZM38.1133 30.249C37.5679 30.7982 36.6891 30.7982 36.1437 30.249L33.634 27.7207C33.1097 27.1925 32.2562 27.1894 31.728 27.7137C31.1998 28.238 31.1967 29.0912 31.721 29.6194L34.231 32.1476C34.7817 32.7025 34.7817 33.6051 34.231 34.1596C33.6856 34.7092 32.8069 34.7092 32.2615 34.1596L29.7518 31.6314C29.2271 31.1032 28.374 31.1 27.8458 31.6243C27.3176 32.1487 27.3144 33.0022 27.8388 33.5304L30.3484 36.0586C30.8994 36.6135 30.8994 37.5161 30.3484 38.0706C29.8034 38.6202 28.9246 38.6202 28.3789 38.0706C25.7369 35.4308 25.8636 35.4887 25.5976 35.3279C24.9111 34.7369 24.0608 34.3944 23.1546 34.3481C23.1058 33.3665 22.7099 32.3993 21.9677 31.651C21.5869 31.2678 21.144 30.9695 20.6621 30.7652C21.576 29.1919 21.3644 27.1325 20.0262 25.7848C18.6547 24.4031 16.603 24.2357 15.0732 25.1317C14.8749 24.6583 14.5854 24.2143 14.2028 23.8293C12.6025 22.2171 10.0083 22.2171 8.40757 23.8293L8.19278 24.0459C8.04468 23.6612 7.96642 23.2482 7.96642 22.8232C7.96642 21.2039 7.33997 19.6814 6.20007 18.5328L3.80482 16.1329L13.5525 6.31293L16.5055 9.27392C17.1652 9.93863 18.0114 10.3475 18.9256 10.4535L12.9033 17.6799C12.427 18.252 12.5042 19.1017 13.0759 19.5779C14.4583 20.7301 16.2068 21.2751 17.9991 21.1123C19.7911 20.9494 21.4128 20.0984 22.5664 18.7138C23.049 18.1348 23.8607 17.9604 24.5412 18.2888C25.9299 18.9599 27.4562 19.2048 28.9576 19.0132L38.1133 28.2366C38.6639 28.7915 38.6639 29.6941 38.1133 30.249ZM40.2902 19.0883C39.5065 19.8776 39.0752 20.9263 39.0752 22.0409C39.0752 22.9814 38.8313 23.8834 38.3758 24.6751L31.821 18.0723C33.161 17.3269 34.2598 16.2063 34.9887 14.8172C35.3344 14.1581 35.0803 13.3436 34.4212 12.9979C33.7621 12.6518 32.9476 12.9059 32.6019 13.565C31.8705 14.959 30.6152 15.8894 29.2089 16.234C29.1471 16.2435 29.0857 16.2568 29.0257 16.2751C27.9451 16.4986 26.7866 16.3804 25.7137 15.862C23.9172 14.9941 21.7718 15.4574 20.4944 16.9903C19.803 17.8196 18.8302 18.3303 17.7552 18.4282C17.1442 18.4836 16.5419 18.4019 15.9832 18.1944L22.2221 10.7069C22.711 10.5577 23.2178 10.4707 23.7288 10.4707H27.6387C28.7337 10.4707 29.7627 10.053 30.5365 9.27392L33.5614 6.22555L43.3095 16.0456L40.2902 19.0883Z" fill="white"/>
</g>
<defs>
<clipPath id="clip0_1_648">
<rect width="46" height="46" fill="white" transform="translate(0.645508)"/>
</clipPath>
</defs>
</svg>
