<svg width="43" height="43" viewBox="0 0 43 43" fill="none" xmlns="http://www.w3.org/2000/svg">
<path d="M22.8438 34.9375H12.0938C9.87119 34.9375 8.0625 33.1288 8.0625 30.9062V8.0625C8.0625 5.83994 9.87119 4.03125 12.0938 4.03125H28.2188C30.4413 4.03125 32.25 5.83994 32.25 8.0625V14.8619C32.25 15.6036 32.8507 16.2056 33.5938 16.2056C34.3368 16.2056 34.9375 15.6036 34.9375 14.8619V8.0625C34.9375 4.35778 31.9235 1.34375 28.2188 1.34375H12.0938C8.38903 1.34375 5.375 4.35778 5.375 8.0625V30.9062C5.375 34.611 8.38903 37.625 12.0938 37.625H22.8438C23.5868 37.625 24.1875 37.023 24.1875 36.2812C24.1875 35.5395 23.5868 34.9375 22.8438 34.9375Z" fill="white"/>
<path d="M13.4375 12.0938H22.8438C23.5868 12.0938 24.1875 11.4918 24.1875 10.75C24.1875 10.0082 23.5868 9.40625 22.8438 9.40625H13.4375C12.6944 9.40625 12.0938 10.0082 12.0938 10.75C12.0938 11.4918 12.6944 12.0938 13.4375 12.0938Z" fill="white"/>
<path d="M26.015 17.4688C26.015 16.727 25.4143 16.125 24.6713 16.125H13.4375C12.6944 16.125 12.0938 16.727 12.0938 17.4688C12.0938 18.2105 12.6944 18.8125 13.4375 18.8125H24.6713C25.4143 18.8125 26.015 18.2105 26.015 17.4688Z" fill="white"/>
<path d="M22.1988 22.8438C22.1988 22.102 21.5981 21.5 20.855 21.5H13.4375C12.6944 21.5 12.0938 22.102 12.0938 22.8438C12.0938 23.5855 12.6944 24.1875 13.4375 24.1875H20.855C21.5981 24.1875 22.1988 23.5855 22.1988 22.8438Z" fill="white"/>
<path d="M13.4375 26.875C12.6944 26.875 12.0938 27.477 12.0938 28.2188C12.0938 28.9605 12.6944 29.5625 13.4375 29.5625H20.2369C20.98 29.5625 21.5806 28.9605 21.5806 28.2188C21.5806 27.477 20.98 26.875 20.2369 26.875H13.4375Z" fill="white"/>
<path d="M40.3125 26.875C40.3125 22.4285 36.6965 18.8125 32.25 18.8125C27.8035 18.8125 24.1875 22.4285 24.1875 26.875C24.1875 29.2548 25.2303 31.39 26.875 32.8681V39.6366C26.875 40.381 27.2848 41.0637 27.9419 41.4157C28.6031 41.7705 29.3932 41.7315 30.0167 41.3163L32.25 39.8167L34.4887 41.319C34.8246 41.5434 35.2116 41.6549 35.6013 41.6549C35.9278 41.6549 36.2571 41.5756 36.5581 41.4144C37.2152 41.0623 37.625 40.3797 37.625 39.6353V32.8668C39.2697 31.39 40.3125 29.2561 40.3125 26.875ZM34.9375 38.3829L32.9998 37.0821C32.5456 36.7771 31.9557 36.7771 31.5015 37.0821L29.5638 38.3829V34.4672C30.4064 34.7668 31.308 34.9375 32.2513 34.9375C33.1947 34.9375 34.0963 34.7655 34.9388 34.4672L34.9375 38.3829ZM32.25 32.25C29.2857 32.25 26.875 29.8393 26.875 26.875C26.875 23.9107 29.2857 21.5 32.25 21.5C35.2143 21.5 37.625 23.9107 37.625 26.875C37.625 29.8393 35.2143 32.25 32.25 32.25Z" fill="white"/>
</svg>
