<svg width="33" height="33" viewBox="0 0 33 33" fill="none" xmlns="http://www.w3.org/2000/svg">
<g clip-path="url(#clip0_98_117)">
<path d="M16.5 0C7.38762 0 0 7.38762 0 16.5C0 25.6124 7.38762 33 16.5 33C25.6124 33 33 25.6124 33 16.5C33 7.38762 25.6124 0 16.5 0Z" fill="white"/>
<path d="M18.3051 15.0066L25.3685 6.7959H23.6947L17.5615 13.9251L12.663 6.7959H7.01306L14.4206 17.5765L7.01306 26.1867H8.68697L15.1638 18.658L20.337 26.1867H25.9869L18.3047 15.0066H18.3051ZM9.29009 8.056H11.8611L23.6955 24.9839H21.1245L9.29009 8.056Z" fill="#000067"/>
</g>
<defs>
<clipPath id="clip0_98_117">
<rect width="33" height="33" fill="white"/>
</clipPath>
</defs>
</svg>
